<svg xmlns="http://www.w3.org/2000/svg" width="59" height="62.099" viewBox="0 0 59 62.099">
  <g id="Group_1489" data-name="Group 1489" transform="translate(-3132.186 -860.854)">
    <path id="Subtraction_4" data-name="Subtraction 4" d="M57,33H2a2,2,0,0,1-2-2V22.581a2,2,0,0,1,2-2H7.605V12.348a2,2,0,0,1,2-2h7.1V2a2,2,0,0,1,2-2H40.175a2,2,0,0,1,2,2v8.348h7.1a2,2,0,0,1,2,2v8.233H57a2,2,0,0,1,2,2V31A2,2,0,0,1,57,33ZM2.075,22.766v8.279H56.811V22.766H47.362a1.724,1.724,0,0,0-.095-2.185H49.2V12.533H9.91v8.049H33.4a1.724,1.724,0,0,0-.095,2.185H2.075ZM19.129,2.184v8.164H39.64V2.184Z" transform="translate(3132.186 889.954)" fill="#2373d0"/>
    <g id="Group_1488" data-name="Group 1488" transform="translate(3137.224 861.954)">
      <path id="Path_13396" data-name="Path 13396" d="M3843.9,487.15l-3.732,8.624-8.665.57,6.645,6.117-1.82,8.283,7.572-4.088,7.659,4.419-1.511-8.614,6.629-6.117-8.809-.927Z" transform="translate(-3820.257 -487.15)" fill="none" stroke="#2373d0" stroke-linecap="round" stroke-linejoin="round" stroke-width="2.2"/>
      <path id="Path_13397" data-name="Path 13397" d="M3766.354,522.882,3763.7,520" transform="translate(-3760.579 -514.413)" fill="none" stroke="#2373d0" stroke-linecap="round" stroke-width="2.2"/>
      <path id="Path_13400" data-name="Path 13400" d="M3763.7,522.882l2.654-2.882" transform="translate(-3721.816 -514.248)" fill="none" stroke="#2373d0" stroke-linecap="round" stroke-width="2.2"/>
      <path id="Path_13398" data-name="Path 13398" d="M3736.3,583.3h4.409" transform="translate(-3736.3 -570.503)" fill="none" stroke="#2373d0" stroke-linecap="round" stroke-width="2.2"/>
      <path id="Path_13401" data-name="Path 13401" d="M3740.708,583.3H3736.3" transform="translate(-3693.049 -570.338)" fill="none" stroke="#2373d0" stroke-linecap="round" stroke-width="2.2"/>
      <path id="Path_13399" data-name="Path 13399" d="M3765.993,620l-2.7,2.7" transform="translate(-3760.218 -603.022)" fill="none" stroke="#2373d0" stroke-linecap="round" stroke-width="2.2"/>
      <path id="Path_13402" data-name="Path 13402" d="M3763.293,620l2.7,2.7" transform="translate(-3721.408 -602.858)" fill="none" stroke="#2373d0" stroke-linecap="round" stroke-width="2.2"/>
    </g>
    <path id="Path_13403" data-name="Path 13403" d="M3217,1254h11.311" transform="translate(-75.367 -347.388)" fill="none" stroke="#2373d0" stroke-linecap="round" stroke-width="2"/>
    <path id="Path_13404" data-name="Path 13404" d="M3217,1254h2.586" transform="translate(-59.876 -347.388)" fill="none" stroke="#2373d0" stroke-linecap="round" stroke-width="2"/>
    <path id="Path_13406" data-name="Path 13406" d="M3217,1254h1.229" transform="translate(-49.17 -342.262)" fill="none" stroke="#2373d0" stroke-linecap="round" stroke-width="2"/>
    <path id="Path_13407" data-name="Path 13407" d="M3217,1254h5.274" transform="translate(-44.866 -342.262)" fill="none" stroke="#2373d0" stroke-linecap="round" stroke-width="2"/>
  </g>
</svg>
